<?xml version="1.0" encoding="UTF-8" standalone="no"?>
<svg
   xmlns:osb="http://www.openswatchbook.org/uri/2009/osb"
   xmlns:dc="http://purl.org/dc/elements/1.1/"
   xmlns:cc="http://creativecommons.org/ns#"
   xmlns:rdf="http://www.w3.org/1999/02/22-rdf-syntax-ns#"
   xmlns:svg="http://www.w3.org/2000/svg"
   xmlns="http://www.w3.org/2000/svg"
   version="1.0"
   width="1280.000000pt"
   height="1280.000000pt"
   viewBox="0 0 1280.000000 1280.000000"
   preserveAspectRatio="xMidYMid meet"
   id="svg70">
  <metadata
     id="metadata76">
    <rdf:RDF>
      <cc:Work
         rdf:about="">
        <dc:format>image/svg+xml</dc:format>
        <dc:type
           rdf:resource="http://purl.org/dc/dcmitype/StillImage" />
        <dc:title></dc:title>
      </cc:Work>
    </rdf:RDF>
  </metadata>
  <defs
     id="defs74">
    <marker
       style="overflow:visible;"
       id="Arrow1Lend"
       refX="0.0"
       refY="0.0"
       orient="auto">
      <path
         transform="scale(0.8) rotate(180) translate(12.5,0)"
         style="fill-rule:evenodd;stroke:#000000;stroke-width:1.0pt;"
         d="M 0.0,0.0 L 5.0,-5.0 L -12.5,0.0 L 5.0,5.0 L 0.0,0.0 z "
         id="path2962" />
    </marker>
    <linearGradient
       id="linearGradient965"
       osb:paint="solid">
      <stop
         style="stop-color:#007ce8;stop-opacity:1;"
         offset="0"
         id="stop963" />
    </linearGradient>
    <linearGradient
       id="linearGradient935"
       osb:paint="solid">
      <stop
         style="stop-color:#000000;stop-opacity:1;"
         offset="0"
         id="stop933" />
    </linearGradient>
  </defs>
  <g
     transform="translate(0.000000,1280.000000) scale(0.100000,-0.100000)"
     fill="#000000"
     stroke="none"
     id="g68">
    <path
       d="M6303 12405 c-51 -18 -126 -52 -167 -74 -42 -23 -82 -41 -90 -41 -9 0 -30 9 -48 20 -37 22 -88 26 -121 8 -12 -6 -51 -15 -87 -19 -81 -11 -76 -11 -131 -3 -35 5 -54 2 -85 -14 -73 -38 -104 -90 -104 -178 0 -62 -16 -77 -76 -71 -65 6 -161 32 -180 48 -9 7 -24 30 -35 50 -33 66 -64 68 -121 8 -17 -18 -41 -31 -68 -35 -54 -9 -68 -31 -82 -135 -11 -83 -11 -85 16 -123 50 -74 26 -105 -61 -75 -29 10 -63 25 -75 33 -48 34 -134 12 -189 -47 -21 -23 -39 -52 -39 -64 0 -30 37 -113 63 -141 21 -23 21 -23 2 -60 -10 -20 -20 -40 -22 -43 -1 -4 9 -19 23 -34 24 -26 24 -28 8 -46 -20 -23 -47 -25 -63 -5 -7 8 -22 45 -34 83 -26 80 -33 83 -141 57 -51 -12 -78 -25 -98 -46 -53 -56 -139 -25 -158 57 -5 22 -10 70 -10 106 0 85 -19 98 -65 46 -25 -29 -36 -34 -58 -30 -22 4 -35 -1 -57 -22 -36 -35 -46 -82 -30 -139 11 -39 10 -48 -10 -87 -13 -24 -58 -78 -101 -119 -43 -41 -82 -86 -87 -100 -17 -46 -25 -199 -12 -230 28 -68 -19 -110 -82 -73 -30 17 -35 28 -55 109 -12 49 -22 110 -23 135 0 53 -30 89 -74 89 -44 0 -96 34 -168 108 l-68 70 1 95 c1 114 -13 167 -44 167 -22 0 -125 -62 -139 -84 -4 -6 -8 -25 -8 -42 0 -39 -34 -72 -80 -76 -33 -3 -35 -5 -38 -46 -2 -23 4 -68 13 -99 l16 -55 -33 -32 c-19 -17 -52 -66 -74 -108 -37 -74 -62 -95 -79 -68 -13 20 -51 10 -73 -20 -28 -37 -48 -38 -162 -9 l-85 22 -45 -32 c-43 -31 -46 -32 -120 -25 -59 5 -83 3 -106 -9 -37 -19 -69 -22 -117 -12 -35 7 -42 5 -75 -28 -24 -22 -51 -37 -77 -41 -22 -4 -57 -12 -77 -18 l-38 -11 1 -61 c1 -34 4 -72 8 -86 6 -22 93 -102 121 -112 7 -2 17 -30 22 -63 13 -84 44 -135 96 -161 71 -34 81 -69 32 -114 -24 -22 -30 -36 -30 -68 0 -45 -21 -66 -104 -103 -24 -10 -53 -30 -63 -44 -11 -16 -45 -33 -92 -49 -68 -23 -76 -24 -103 -10 -57 29 -66 -17 -15 -76 61 -72 84 -120 90 -194 4 -42 13 -76 22 -85 10 -10 43 -17 97 -21 l83 -5 -3 -52 c-2 -29 1 -54 7 -58 18 -11 12 -23 -16 -37 -26 -12 -29 -20 -35 -85 -6 -54 -14 -83 -35 -114 l-27 -40 19 -54 c9 -29 15 -65 12 -80 -8 -46 12 -98 56 -141 23 -22 58 -60 78 -82 25 -30 43 -42 63 -42 15 0 55 -13 89 -29 62 -29 63 -29 209 -24 138 6 148 5 154 -13 4 -10 14 -27 22 -36 14 -17 11 -48 -14 -140 -3 -10 -17 -18 -37 -20 -27 -2 -36 -11 -58 -52 -31 -57 -44 -122 -29 -141 6 -7 43 -16 83 -19 60 -5 90 -2 182 23 61 16 122 33 136 39 41 16 183 162 198 202 7 19 31 72 53 118 38 76 44 83 81 93 51 14 93 57 102 106 10 59 31 82 103 114 37 17 84 42 106 57 30 21 50 26 96 27 52 0 64 -4 117 -41 32 -23 91 -58 131 -79 63 -32 77 -36 98 -27 13 7 24 16 24 22 0 22 32 7 121 -58 52 -37 105 -72 120 -78 16 -8 30 -26 38 -51 7 -21 37 -64 67 -96 43 -45 60 -57 84 -57 26 0 33 6 45 34 l15 35 75 -35 c42 -18 84 -34 93 -34 21 0 140 -132 158 -175 7 -18 18 -76 23 -131 6 -54 17 -121 26 -149 9 -27 20 -90 25 -139 9 -89 9 -89 54 -131 25 -23 46 -46 46 -51 1 -41 32 -146 49 -163 26 -26 39 -124 21 -166 -20 -48 -23 -99 -7 -138 13 -30 23 -38 59 -47 82 -21 157 -52 163 -68 3 -9 3 -40 -1 -69 -8 -67 11 -103 56 -103 79 0 174 -78 230 -190 29 -58 45 -79 64 -84 17 -4 28 -17 36 -41 15 -46 92 -113 139 -120 126 -20 147 -26 169 -50 12 -15 22 -37 22 -50 0 -28 24 -55 50 -55 29 0 88 -86 111 -161 11 -37 26 -73 34 -79 7 -6 39 -17 70 -26 64 -16 165 -66 188 -93 8 -9 25 -47 37 -86 43 -131 100 -215 148 -215 43 -1 101 -39 135 -91 68 -103 110 -134 233 -173 120 -39 141 -54 172 -127 35 -80 80 -96 167 -59 81 35 113 35 180 2 94 -47 180 -68 219 -54 18 7 38 12 45 12 7 0 42 -28 78 -62 48 -47 75 -83 101 -138 20 -41 55 -96 79 -121 40 -43 43 -50 37 -85 -5 -35 -2 -42 26 -69 27 -26 38 -30 85 -29 31 1 63 8 76 18 33 23 42 21 96 -24 26 -22 54 -45 60 -50 19 -15 -3 -54 -37 -67 -21 -8 -31 -21 -39 -49 -27 -96 -7 -110 87 -66 57 26 82 32 163 35 81 3 102 8 129 27 32 23 33 23 47 4 8 -10 23 -37 33 -59 10 -22 36 -71 59 -110 46 -79 49 -101 21 -164 -19 -41 -20 -48 -6 -96 21 -69 73 -115 131 -115 18 0 28 -7 35 -26 11 -27 68 -84 85 -84 6 0 42 -18 79 -41 61 -37 71 -40 96 -29 15 6 42 27 61 46 18 19 39 34 48 34 58 0 146 -150 160 -274 5 -39 17 -91 28 -116 11 -25 26 -63 33 -85 20 -62 69 -156 103 -194 42 -49 57 -91 57 -163 0 -38 12 -106 29 -171 19 -68 28 -120 24 -141 -5 -29 0 -40 35 -77 48 -53 55 -75 46 -135 -5 -34 -17 -58 -42 -86 -31 -34 -41 -39 -67 -35 -25 4 -40 -2 -75 -29 -23 -19 -60 -39 -80 -44 -61 -16 -61 -35 -3 -131 l34 -57 -38 -87 c-33 -76 -44 -93 -90 -126 -28 -21 -64 -55 -80 -75 -26 -35 -28 -42 -26 -138 0 -56 4 -120 8 -143 7 -40 11 -44 49 -55 22 -6 97 -12 166 -12 120 -1 127 0 184 29 49 25 66 40 92 85 18 30 40 80 49 110 24 79 35 100 81 146 30 30 53 44 83 49 57 10 96 45 121 113 20 52 20 62 9 120 -10 49 -10 88 -2 174 11 109 12 113 45 139 55 46 142 94 217 119 62 21 74 23 105 12 27 -10 45 -10 80 -1 57 14 64 23 72 92 6 51 4 59 -20 87 -35 42 -40 68 -21 112 20 48 19 87 -2 110 -15 17 -15 21 0 54 40 84 2 141 -144 214 -64 32 -81 46 -196 163 -52 52 -73 66 -135 87 -44 15 -74 31 -76 41 -1 8 24 49 57 91 70 87 81 111 81 178 0 63 13 97 55 140 19 20 52 77 76 133 40 95 45 100 154 202 62 58 120 105 129 105 23 0 87 -50 80 -61 -3 -5 -25 -14 -49 -20 -49 -13 -70 -31 -61 -54 7 -20 66 -45 104 -45 15 0 46 -9 67 -20 116 -60 168 -75 255 -74 47 1 101 5 120 9 66 13 112 -46 150 -192 44 -164 49 -173 132 -263 78 -84 158 -139 204 -140 30 0 71 35 83 73 6 17 18 72 26 121 11 61 29 116 56 172 51 104 48 125 -23 185 -29 25 -78 84 -114 139 -76 118 -153 190 -228 213 -45 15 -56 22 -61 45 -3 15 -11 34 -18 43 -7 9 -109 62 -227 118 l-215 103 -105 103 c-113 110 -184 156 -267 174 -28 6 -98 31 -155 57 -56 25 -154 66 -216 90 -148 58 -169 69 -217 114 -22 20 -80 56 -130 78 -113 52 -141 74 -189 151 -56 92 -52 100 107 223 45 35 77 67 77 77 0 10 9 30 21 45 28 35 18 58 -45 106 -54 41 -121 70 -162 70 -36 0 -154 -50 -167 -71 -15 -24 -32 -24 -68 2 -41 29 -87 33 -149 15 -74 -22 -149 -21 -157 2 -10 28 -25 33 -78 26 -64 -7 -179 28 -273 84 -37 23 -86 48 -108 57 -37 14 -45 24 -69 82 -31 72 -72 111 -195 183 -86 52 -114 82 -140 153 -23 62 -35 71 -130 99 -55 16 -125 97 -136 155 -3 21 -28 87 -56 146 -27 60 -56 141 -64 180 -27 132 -55 231 -86 307 -17 41 -41 106 -54 144 -13 38 -29 75 -36 84 -7 8 -15 48 -19 89 -6 71 -8 76 -50 119 -24 25 -60 54 -80 64 -20 11 -70 46 -110 78 -41 32 -99 74 -129 94 -30 19 -89 63 -130 98 -47 39 -109 79 -165 105 -75 35 -117 65 -236 168 -80 70 -158 143 -172 164 -42 61 -97 239 -97 314 0 45 -9 89 -30 149 -33 92 -36 127 -19 196 10 40 14 45 33 39 56 -18 100 13 111 77 5 28 14 42 31 50 66 30 22 120 -96 198 -55 37 -60 46 -53 116 5 52 2 69 -16 104 -25 48 -27 110 -6 170 8 23 15 58 15 76 0 36 11 45 118 105 43 23 44 23 55 5 29 -47 43 -55 86 -45 22 5 86 28 142 51 77 32 115 54 162 97 34 31 77 67 95 79 18 13 39 39 47 58 17 42 35 43 136 8 41 -15 101 -29 135 -31 57 -5 63 -4 95 25 50 44 80 49 118 21 29 -21 31 -26 25 -68 l-6 -46 44 -22 c78 -38 98 -44 119 -33 30 17 25 79 -15 166 -19 41 -39 74 -43 74 -5 0 -41 27 -80 59 -70 59 -70 60 -77 121 -9 81 -21 110 -45 110 -10 0 -24 7 -31 15 -10 13 -7 20 20 43 63 53 100 94 100 111 0 22 -76 108 -112 127 -15 8 -38 12 -51 9 -28 -7 -44 9 -53 53 -6 28 -3 32 35 51 22 12 58 38 79 60 22 22 52 42 72 46 19 4 41 12 48 17 13 11 16 76 4 95 -15 24 -166 66 -267 74 -55 4 -165 19 -244 34 -80 15 -158 25 -175 22 -21 -3 -44 3 -71 18 -79 45 -237 97 -278 92 -32 -4 -47 1 -97 34 -32 22 -62 49 -65 61 -4 11 -1 40 5 64 11 39 11 47 -5 64 -12 13 -31 20 -55 20 -57 0 -80 46 -54 108 14 36 19 98 8 126 -9 23 -37 19 -141 -19z"
       id="path62"
       style="fill:#007ce8;stroke-width:0.99750002;stroke-miterlimit:4;stroke-dasharray:none" />
    <path
       d="M3850 5410 c-11 -11 -20 -30 -20 -42 0 -29 -33 -84 -59 -98 -11 -6 -32 -8 -46 -4 -20 5 -34 -2 -70 -35 -24 -22 -49 -41 -54 -41 -5 0 -38 -26 -74 -57 -111 -98 -260 -183 -320 -183 -14 0 -32 12 -45 30 -13 18 -32 30 -45 30 -33 0 -49 14 -61 52 -7 19 -19 34 -30 36 -32 7 -46 -25 -46 -105 0 -71 -1 -75 -35 -110 -29 -30 -35 -43 -35 -80 0 -24 7 -60 15 -81 9 -20 13 -47 10 -59 -5 -20 -2 -23 24 -23 57 0 99 -30 152 -108 50 -74 51 -76 44 -132 -7 -59 0 -74 39 -81 18 -4 20 -13 19 -132 0 -120 -1 -129 -23 -153 -17 -17 -26 -41 -30 -80 -8 -73 3 -89 58 -81 49 8 57 -5 30 -50 -26 -43 -47 -192 -36 -257 11 -69 2 -102 -34 -129 -28 -21 -29 -25 -23 -72 13 -106 3 -253 -20 -298 l-20 -39 32 -26 31 -27 -9 -79 c-12 -103 -3 -112 55 -58 63 58 77 55 107 -20 31 -82 51 -92 151 -78 122 17 175 38 235 94 40 37 54 58 53 76 -4 81 -2 99 16 135 18 38 21 40 60 37 23 -2 45 1 49 7 3 6 21 11 40 11 27 0 37 -6 53 -34 11 -19 39 -47 61 -62 61 -40 79 -31 140 75 l51 89 0 98 c0 84 4 107 25 152 23 49 24 63 23 200 -2 339 -3 324 20 369 28 54 28 90 -2 133 -54 80 -57 154 -9 220 15 19 59 67 100 106 95 94 95 122 -1 179 -12 7 -20 33 -27 85 -6 41 -19 104 -30 139 -10 35 -19 76 -19 92 0 30 -8 39 -78 97 -30 25 -32 30 -23 55 17 43 13 65 -14 89 -21 18 -25 30 -25 80 0 55 -2 60 -44 103 -48 48 -66 53 -106 30 -36 -21 -58 -18 -92 10 -36 30 -61 32 -88 5z"
       id="path64"
       style="fill:#007ce8" />
    <path
       d="M9246 2090 c-22 -11 -69 -29 -105 -41 -36 -12 -94 -37 -128 -55 -66 -37 -103 -43 -123 -19 -7 8 -24 15 -39 15 -14 0 -42 5 -62 10 -32 9 -48 5 -163 -45 -70 -30 -155 -70 -189 -88 -67 -38 -143 -49 -347 -51 -90 -1 -97 -3 -137 -32 -66 -49 -101 -51 -186 -12 -40 18 -101 55 -137 83 -48 36 -79 52 -120 61 l-55 11 -11 50 c-14 65 -20 73 -49 73 -16 0 -35 -14 -60 -44 -27 -33 -45 -45 -73 -50 -20 -3 -67 -26 -104 -51 -53 -36 -76 -45 -109 -45 -38 0 -48 5 -85 45 -23 25 -48 45 -57 45 -8 0 -30 -12 -47 -26 -17 -15 -54 -38 -83 -53 -30 -15 -57 -37 -64 -52 -26 -53 -52 -250 -43 -324 13 -114 24 -131 82 -126 10 1 24 -11 33 -28 15 -31 16 -31 101 -31 118 0 183 -20 222 -70 28 -34 38 -39 89 -46 69 -8 84 -15 143 -67 43 -38 143 -90 222 -116 22 -7 51 -29 72 -55 26 -32 51 -49 96 -66 33 -12 71 -30 83 -40 39 -30 93 -41 194 -39 95 2 102 1 162 -31 99 -53 221 -203 221 -272 0 -29 36 -45 88 -40 47 4 49 3 119 -61 85 -78 125 -95 178 -73 32 14 41 14 72 1 91 -38 119 -14 125 106 4 76 8 92 36 136 18 27 32 55 32 60 0 6 23 27 50 47 28 20 50 41 50 46 0 23 -41 89 -67 108 -26 19 -26 21 -15 59 24 79 17 103 -42 158 -46 43 -55 57 -61 97 -5 34 -3 55 8 75 63 117 87 171 92 202 4 20 8 45 10 56 3 11 25 42 51 70 26 27 55 70 66 95 11 25 46 93 79 151 32 58 59 117 59 132 0 16 15 44 40 72 61 70 51 105 -30 105 -26 0 -63 -9 -84 -20z"
       id="path66"
       style="fill:#007ce8" />
    <g
       id="g2943"
       style="fill:#c48800;stroke-width:12.24750029;stroke-miterlimit:4;stroke-dasharray:none;paint-order:markers stroke fill"
       transform="rotate(-20.021736,7425.2393,7697.4189)">
      <path
         style="fill:#cc9004;fill-opacity:1;stroke-width:150.00000358;stroke-miterlimit:4;stroke-dasharray:none;paint-order:stroke fill markers"
         d="m 8014.3103,4926.2465 c -4.5876,4.5312 -4.4904,4.6579 1.0373,1.3557 3.3545,-2.0043 6.1694,-4.1842 6.2552,-4.8442 0.3403,-2.6168 -2.4745,-1.2701 -7.2925,3.4885 z m -2210.3791,896.6041 c 5.8808,7.8774 11.4036,14.4151 12.2729,14.5281 0.8692,0.1131 -3.2311,-6.2396 -9.1119,-14.117 -5.8808,-7.8774 -11.4036,-14.415 -12.2729,-14.5281 -0.8692,-0.113 3.2312,6.2396 9.1119,14.117 z m -245.2394,1005.0838 c -4.5875,4.5311 -4.4904,4.6581 1.0374,1.3556 3.3545,-2.0041 6.1693,-4.184 6.2552,-4.8442 0.3403,-2.6166 -2.4745,-1.2701 -7.2926,3.4886 z m 2653.203,511.9789 c -0.086,0.6601 2.0778,3.4875 4.8081,6.283 4.4991,4.6066 4.6255,4.5087 1.3495,-1.0451 -3.4406,-5.8328 -5.8172,-7.8545 -6.1576,-5.2379 z"
         id="path2957" />
      <path
         style="fill:#cc9004;fill-opacity:1;stroke-width:150.00000358;stroke-miterlimit:4;stroke-dasharray:none;paint-order:stroke fill markers"
         d="m 6949.9698,4858.1388 c 33.9707,44.4263 62.4761,80.8676 63.3454,80.9806 0.8692,0.1131 -26.2138,-36.1432 -60.1845,-80.5695 -33.9707,-44.4263 -62.4762,-80.8676 -63.3455,-80.9806 -0.8692,-0.1131 26.2138,36.1432 60.1846,80.5695 z m -1129.5539,986.2537 c 2.6919,3.9063 5.6055,7.195 6.4748,7.308 0.8692,0.1131 -0.622,-2.9906 -3.3138,-6.8969 -2.6919,-3.9064 -5.6055,-7.195 -6.4748,-7.3081 -0.8692,-0.113 0.622,2.9906 3.3138,6.897 z m 2384.5597,1486.9343 c 2.6918,3.9063 5.6055,7.195 6.4747,7.308 0.8693,0.1131 -0.6219,-2.9905 -3.3138,-6.8969 -2.6918,-3.9064 -5.6055,-7.195 -6.4747,-7.3081 -0.8693,-0.113 0.6219,2.9906 3.3138,6.897 z m -382.4617,296.1872 c 2.6919,3.9064 5.6055,7.195 6.4747,7.308 0.8693,0.1131 -0.6219,-2.9905 -3.3138,-6.8969 -2.6918,-3.9064 -5.6054,-7.195 -6.4747,-7.3081 -0.8692,-0.113 0.622,2.9906 3.3138,6.897 z"
         id="path2955" />
      <path
         style="fill:#cc9004;fill-opacity:1;stroke-width:150.00000358;stroke-miterlimit:4;stroke-dasharray:none;paint-order:stroke fill markers"
         d="m 8193.9858,7316.9655 c 2.6918,3.9064 5.6055,7.195 6.4747,7.3081 0.8693,0.113 -0.6219,-2.9906 -3.3138,-6.897 -2.6918,-3.9063 -5.6055,-7.1949 -6.4747,-7.308 -0.8693,-0.1131 0.6219,2.9906 3.3138,6.8969 z m -392.0004,283.0264 c -0.071,0.5471 3.947,5.7979 8.9292,11.6685 l 9.0586,10.6737 -7.9401,-11.5399 c -7.4013,-10.7568 -9.7283,-13.2584 -10.0477,-10.8023 z"
         id="path2953" />
      <path
         style="fill:#cc9004;fill-opacity:1;stroke-width:150.00000358;stroke-miterlimit:4;stroke-dasharray:none;paint-order:stroke fill markers"
         d="m 8173.4573,7289.4434 c -0.071,0.5472 3.9469,5.798 8.9292,11.6685 l 9.0586,10.6737 -7.9402,-11.5398 c -7.4013,-10.7568 -9.7282,-13.2585 -10.0476,-10.8024 z m -379.7916,300.3724 c 3.5146,4.9024 7.1013,9.006 7.9706,9.119 0.8693,0.1131 -1.2951,-3.8055 -4.8097,-8.7079 -3.5146,-4.9025 -7.1014,-9.0061 -7.9706,-9.1191 -0.8693,-0.1131 1.2951,3.8055 4.8097,8.708 z"
         id="path2951" />
      <path
         style="fill:#cc9004;fill-opacity:1;stroke-width:150.00000358;stroke-miterlimit:4;stroke-dasharray:none;paint-order:stroke fill markers"
         d="m 6843.3219,4757.5027 c 2.0585,1.1645 5.6145,1.627 7.9023,1.0277 2.2879,-0.5992 0.6037,-1.5522 -3.7426,-2.1174 -4.3462,-0.5653 -6.2181,-0.075 -4.1597,1.0897 z m 1220.3078,158.7776 c 2.1624,1.2152 4.9034,1.4569 6.0911,0.5368 1.1878,-0.9199 -0.5814,-1.9143 -3.9315,-2.2097 -3.7021,-0.3263 -4.5491,0.3298 -2.1595,1.6725 z m -1255.3551,586.4681 c -0.209,1.6069 101.357,135.4469 225.7022,297.4223 l 226.0822,294.5007 -225.101,-295.866 c -123.8056,-162.7263 -225.3716,-296.5663 -225.7023,-297.4223 -0.3306,-0.8559 -0.7722,-0.2414 -0.9811,1.3653 z m -1111.2653,143.2001 c -0.3299,3.7233 0.3211,4.574 1.6599,2.1691 1.2116,-2.1762 1.456,-4.9329 0.5431,-6.1259 -0.9129,-1.193 -1.9042,0.5876 -2.2028,3.9568 z m 24.9119,66.0137 c 5.8808,7.8774 11.4035,14.415 12.2728,14.5281 0.8693,0.113 -3.2311,-6.2396 -9.1119,-14.117 -5.8808,-7.8774 -11.4036,-14.4151 -12.2728,-14.5281 -0.8693,-0.1131 3.2311,6.2396 9.1119,14.117 z m 700.8475,88.7254 c 0.738,0.5406 103.3763,133.5501 228.0852,295.5769 l 226.7434,294.5941 -225.1804,-295.1991 c -123.8493,-162.3595 -226.4876,-295.369 -228.0852,-295.5768 -1.5976,-0.2078 -2.3009,0.064 -1.563,0.6049 z m 1526.6939,1196.7406 c 122.3909,159.9471 223.2401,290.9055 224.1094,291.0185 0.8693,0.1131 -98.5576,-130.6603 -220.9485,-290.6074 -122.3909,-159.9472 -223.2401,-290.9055 -224.1094,-291.0186 -0.8692,-0.113 98.5576,130.6603 220.9485,290.6075 z m -383.8354,294.392 c 121.6353,158.9598 221.8663,289.1104 222.7356,289.2234 0.8692,0.1131 -97.9393,-129.8525 -219.5747,-288.8123 -121.6353,-158.9598 -221.8663,-289.1103 -222.7356,-289.2234 -0.8692,-0.113 97.9394,129.8525 219.5747,288.8123 z M 5537.4067,6873.122 c -0.33,3.7234 0.321,4.5741 1.6599,2.1692 1.2116,-2.1762 1.4559,-4.9329 0.5431,-6.1259 -0.913,-1.1931 -1.9042,0.5875 -2.2029,3.9568 z m 171.6035,229.4844 c 2.0585,1.1646 5.6145,1.627 7.9024,1.0277 2.2878,-0.5993 0.6036,-1.5521 -3.7426,-2.1174 -4.3463,-0.5653 -6.2182,-0.075 -4.1598,1.0897 z"
         id="path2949" />
      <path
         style="fill:#cc9004;fill-opacity:1;stroke-width:150.00000358;stroke-miterlimit:4;stroke-dasharray:none;paint-order:stroke fill markers"
         d="m 5743.9008,5740.6846 c 5.8808,7.8774 11.4036,14.4151 12.2728,14.5281 0.8693,0.1131 -3.2311,-6.2396 -9.1119,-14.117 -5.8808,-7.8774 -11.4036,-14.415 -12.2728,-14.5281 -0.8693,-0.113 3.2311,6.2396 9.1119,14.117 z m 2674.9626,2085.8951 c -0.33,3.7233 0.3212,4.5741 1.66,2.1692 1.2116,-2.1763 1.4561,-4.9329 0.5428,-6.126 -0.913,-1.193 -1.9045,0.5875 -2.2032,3.9567 z m -177.7514,135.6528 c 2.9707,1.2061 7.2449,1.708 9.4981,1.1157 2.2535,-0.5926 -0.1772,-1.5793 -5.4011,-2.1928 -5.224,-0.6135 -7.0675,-0.1288 -4.0971,1.0773 z"
         id="path2947" />
      <path
         style="fill:#cc9004;fill-opacity:1;stroke-width:150.00000358;stroke-miterlimit:4;stroke-dasharray:none;paint-order:stroke fill markers"
         d="m 6814.2871,4761.3036 c -6.7451,2.5326 -16.1614,8.2026 -20.9251,12.6003 -4.7638,4.3977 -99.809,132.4002 -211.2115,284.4499 -111.4026,152.0497 -204.3932,277.5889 -206.6459,278.9762 -2.2527,1.3872 -146.6256,59.2195 -320.8288,128.516 -174.2032,69.2967 -320.3669,127.7643 -324.8083,129.9281 -4.4413,2.1638 -12.3536,9.4823 -17.5829,16.2633 -11.7644,15.2553 -16.9257,46.8087 -10.4651,63.9775 6.4883,17.2421 129.4286,181.0149 142.2139,189.4476 22.9331,15.1258 48.5305,13.4417 263.5863,-17.3427 62.1502,-8.8965 159.4752,-23.1778 216.2776,-31.7361 l 103.2773,-15.5606 225.2447,294.1343 c 142.7287,186.3813 223.9751,295.0712 221.7792,296.6919 -1.906,1.4067 -294.2978,98.117 -649.7596,214.9117 -355.4618,116.7947 -650.6515,214.6902 -655.9771,217.5457 -21.7127,11.642 -34.8859,50.2599 -27.0426,79.2767 4.5243,16.7377 126.2948,176.6076 142.8093,187.4914 14.3663,9.4679 32.5917,12.2847 64.8403,10.0213 13.1263,-0.9213 233.8229,-14.4693 490.4369,-30.1066 752.1202,-45.8321 918.0674,-55.9928 1015.5356,-62.1796 l 92.1061,-5.8464 255.8239,333.5418 c 140.7033,183.448 269.7027,349.1703 286.6655,368.2718 145.9956,164.4032 255.0355,242.7783 356.1643,256.0022 50.0782,6.5482 86.9263,-2.9066 120.0821,-30.812 32.0191,-26.949 46.516,-55.3488 52.7148,-103.2701 13.1187,-101.4127 -34.4419,-227.7392 -154.9483,-411.5644 -14.0172,-21.3825 -140.2401,-189.1788 -280.495,-372.8806 l -255.009,-334.0032 255.417,-776.8059 c 140.4794,-427.2433 256.223,-783.0025 257.208,-790.5762 0.985,-7.5735 -0.2541,-19.9508 -2.7535,-27.5055 -6.2348,-18.8444 -128.7194,-178.1614 -143.6467,-186.8429 -6.1107,-3.5538 -19.7473,-7.5846 -30.3035,-8.9575 -23.8634,-3.1036 -42.3666,2.9271 -55.0887,17.955 -5.0583,5.9749 -174.5255,267.9636 -376.5939,582.197 -202.0682,314.2334 -368.8917,572.5569 -370.7187,574.0523 -2.0963,1.7158 -86.3793,-105.8581 -228.4526,-291.5834 l -225.1307,-294.3023 44.0358,-102.5777 c 65.0961,-151.6355 143.3866,-340.2057 158.4706,-381.6917 13.9517,-38.3716 14.9209,-47.5276 7.279,-68.7668 -6.421,-17.8457 -130.161,-177.2988 -143.61,-185.058 -15.4771,-8.9289 -44.7527,-11.9954 -59.9707,-6.2818 z"
         id="path2945" />
    </g>
    <circle
       id="path2901"
       style="fill:#007ce8;stroke:#000000;stroke-width:7.5"
       cx="6958.8286"
       cy="-6649.293"
       r="0.89477301"
       transform="scale(1,-1)" />
    <circle
       id="path2903"
       style="fill:#007ce8;stroke:#000000;stroke-width:7.5"
       cx="7264.1191"
       cy="-6496.6479"
       r="0.89477301"
       transform="scale(1,-1)" />
  </g>
</svg>
